<svg id="visual" viewBox="0 0 2560 1440" width="2560" height="1440" xmlns="http://www.w3.org/2000/svg" xmlns:xlink="http://www.w3.org/1999/xlink" version="1.1"><rect x="0" y="0" width="2560" height="1440" fill="#000000"></rect><defs><linearGradient id="grad1_0" x1="43.8%" y1="0%" x2="100%" y2="100%"><stop offset="14.444444444444446%" stop-color="#fefefe" stop-opacity="1"></stop><stop offset="85.55555555555554%" stop-color="#fefefe" stop-opacity="1"></stop></linearGradient></defs><defs><linearGradient id="grad1_1" x1="43.8%" y1="0%" x2="100%" y2="100%"><stop offset="14.444444444444446%" stop-color="#fefefe" stop-opacity="1"></stop><stop offset="85.55555555555554%" stop-color="#b8b8b8" stop-opacity="1"></stop></linearGradient></defs><defs><linearGradient id="grad1_2" x1="43.8%" y1="0%" x2="100%" y2="100%"><stop offset="14.444444444444446%" stop-color="#767676" stop-opacity="1"></stop><stop offset="85.55555555555554%" stop-color="#b8b8b8" stop-opacity="1"></stop></linearGradient></defs><defs><linearGradient id="grad1_3" x1="43.8%" y1="0%" x2="100%" y2="100%"><stop offset="14.444444444444446%" stop-color="#767676" stop-opacity="1"></stop><stop offset="85.55555555555554%" stop-color="#3b3b3b" stop-opacity="1"></stop></linearGradient></defs><defs><linearGradient id="grad1_4" x1="43.8%" y1="0%" x2="100%" y2="100%"><stop offset="14.444444444444446%" stop-color="#000000" stop-opacity="1"></stop><stop offset="85.55555555555554%" stop-color="#3b3b3b" stop-opacity="1"></stop></linearGradient></defs><defs><linearGradient id="grad2_0" x1="0%" y1="0%" x2="56.3%" y2="100%"><stop offset="14.444444444444446%" stop-color="#fefefe" stop-opacity="1"></stop><stop offset="85.55555555555554%" stop-color="#fefefe" stop-opacity="1"></stop></linearGradient></defs><defs><linearGradient id="grad2_1" x1="0%" y1="0%" x2="56.3%" y2="100%"><stop offset="14.444444444444446%" stop-color="#b8b8b8" stop-opacity="1"></stop><stop offset="85.55555555555554%" stop-color="#fefefe" stop-opacity="1"></stop></linearGradient></defs><defs><linearGradient id="grad2_2" x1="0%" y1="0%" x2="56.3%" y2="100%"><stop offset="14.444444444444446%" stop-color="#b8b8b8" stop-opacity="1"></stop><stop offset="85.55555555555554%" stop-color="#767676" stop-opacity="1"></stop></linearGradient></defs><defs><linearGradient id="grad2_3" x1="0%" y1="0%" x2="56.3%" y2="100%"><stop offset="14.444444444444446%" stop-color="#3b3b3b" stop-opacity="1"></stop><stop offset="85.55555555555554%" stop-color="#767676" stop-opacity="1"></stop></linearGradient></defs><defs><linearGradient id="grad2_4" x1="0%" y1="0%" x2="56.3%" y2="100%"><stop offset="14.444444444444446%" stop-color="#3b3b3b" stop-opacity="1"></stop><stop offset="85.55555555555554%" stop-color="#000000" stop-opacity="1"></stop></linearGradient></defs><g transform="translate(2560, 0)"><path d="M0 792C-67.1 750.9 -134.1 709.7 -176.5 658.8C-218.9 607.8 -236.7 547 -315 545.6C-393.3 544.2 -532.1 602.1 -560 560C-587.9 518 -504.8 376 -531.7 307C-558.7 238 -695.6 241.9 -757.3 202.9C-819 163.9 -805.5 82 -792 0L0 0Z" fill="#202020"></path><path d="M0 633.6C-53.6 600.7 -107.3 567.8 -141.2 527C-175.1 486.2 -189.4 437.6 -252 436.5C-314.6 435.3 -425.7 481.7 -448 448C-470.3 414.4 -403.9 300.8 -425.4 245.6C-446.9 190.4 -556.5 193.5 -605.8 162.3C-655.2 131.1 -644.4 65.6 -633.6 0L0 0Z" fill="#585858"></path><path d="M0 475.2C-40.2 450.5 -80.5 425.8 -105.9 395.3C-131.4 364.7 -142 328.2 -189 327.4C-236 326.5 -319.3 361.2 -336 336C-352.7 310.8 -302.9 225.6 -319 184.2C-335.2 142.8 -417.3 145.2 -454.4 121.7C-491.4 98.3 -483.3 49.2 -475.2 0L0 0Z" fill="#979797"></path><path d="M0 316.8C-26.8 300.3 -53.6 283.9 -70.6 263.5C-87.6 243.1 -94.7 218.8 -126 218.2C-157.3 217.7 -212.9 240.8 -224 224C-235.2 207.2 -201.9 150.4 -212.7 122.8C-223.5 95.2 -278.2 96.8 -302.9 81.2C-327.6 65.6 -322.2 32.8 -316.8 0L0 0Z" fill="#dadada"></path><path d="M0 158.4C-13.4 150.2 -26.8 141.9 -35.3 131.8C-43.8 121.6 -47.3 109.4 -63 109.1C-78.7 108.8 -106.4 120.4 -112 112C-117.6 103.6 -101 75.2 -106.3 61.4C-111.7 47.6 -139.1 48.4 -151.5 40.6C-163.8 32.8 -161.1 16.4 -158.4 0L0 0Z" fill="#fefefe"></path></g><g transform="translate(0, 1440)"><path d="M0 -792C71.8 -793.7 143.6 -795.3 205 -765C266.3 -734.7 317.2 -672.4 352 -609.7C386.8 -547 405.7 -484 439.1 -439.1C472.6 -394.3 520.6 -367.6 575 -332C629.4 -296.4 690.1 -251.7 727.3 -194.9C764.6 -138.1 778.3 -69 792 0L0 0Z" fill="#202020"></path><path d="M0 -633.6C57.5 -634.9 114.9 -636.3 164 -612C213.1 -587.7 253.7 -537.9 281.6 -487.7C309.5 -437.6 324.5 -387.2 351.3 -351.3C378.1 -315.4 416.5 -294.1 460 -265.6C503.5 -237.1 552.1 -201.4 581.9 -155.9C611.6 -110.4 622.6 -55.2 633.6 0L0 0Z" fill="#585858"></path><path d="M0 -475.2C43.1 -476.2 86.2 -477.2 123 -459C159.8 -440.8 190.3 -403.4 211.2 -365.8C232.1 -328.2 243.4 -290.4 263.5 -263.5C283.5 -236.6 312.4 -220.6 345 -199.2C377.7 -177.8 414.1 -151 436.4 -116.9C458.7 -82.8 467 -41.4 475.2 0L0 0Z" fill="#979797"></path><path d="M0 -316.8C28.7 -317.5 57.5 -318.1 82 -306C106.5 -293.9 126.9 -268.9 140.8 -243.9C154.7 -218.8 162.3 -193.6 175.6 -175.6C189 -157.7 208.3 -147.1 230 -132.8C251.8 -118.5 276.1 -100.7 290.9 -78C305.8 -55.2 311.3 -27.6 316.8 0L0 0Z" fill="#dadada"></path><path d="M0 -158.4C14.4 -158.7 28.7 -159.1 41 -153C53.3 -146.9 63.4 -134.5 70.4 -121.9C77.4 -109.4 81.1 -96.8 87.8 -87.8C94.5 -78.9 104.1 -73.5 115 -66.4C125.9 -59.3 138 -50.3 145.5 -39C152.9 -27.6 155.7 -13.8 158.4 0L0 0Z" fill="#fefefe"></path></g></svg>